<svg width="128" height="128" viewBox="0 0 507 507" fill="none" xmlns="http://www.w3.org/2000/svg">
    <path
        d="M317.334 40C354.241 40.0001 424 66.8802 424 168C424 231.36 464.747 232 466.881 232V274.667C459.841 274.88 424 278.934 424 338.667C424 439.787 354.241 466.667 317.334 466.667H296V424H317.334C323.735 423.787 381.334 420.373 381.334 338.667C381.334 296.214 395.414 269.333 413.334 253.333C395.627 237.333 381.334 210.453 381.334 168C381.334 86.2933 323.733 82.667 317.12 82.667H296V40H317.334Z"
        fill="currentColor" />
    <path
        d="M189.547 467C152.64 467 82.8808 440.12 82.8809 339C82.8809 275.64 42.1333 275 40 275L40 232.333C47.04 232.12 82.8809 228.066 82.8809 168.333C82.881 67.2134 152.64 40.3331 189.547 40.333L210.881 40.333V83H189.547C183.146 83.2134 125.547 86.6275 125.547 168.333C125.547 210.786 111.467 237.667 93.5469 253.667C111.254 269.667 125.547 296.547 125.547 339C125.547 420.707 183.147 424.333 189.761 424.333H210.881V467H189.547Z"
        fill="currentColor" />
    <path
        d="M357.194 221.285L337.366 231.186C333.379 213.645 325.621 197.933 315.06 185.45L337.366 163.174L322.172 148L299.328 170.814C286.181 161.237 270.879 155.641 254.392 155.641C237.905 155.641 222.496 161.237 209.457 170.814L186.612 148L171.418 163.174L193.724 185.45C183.164 197.933 175.405 213.645 171.418 231.186L151.59 221.285L142 240.548L168.509 253.785C168.509 255.076 168.293 256.475 168.293 257.766C168.293 263.255 168.724 268.636 169.478 273.909H146.741V295.431H174.435C176.267 300.812 178.422 305.87 180.901 310.713L160.642 330.944L175.836 346.118L192.862 329.115C208.487 348.162 230.362 360 254.5 360C278.638 360 300.405 348.162 316.138 329.115L333.164 346.118L348.358 330.944L328.099 310.713C330.578 305.87 332.733 300.812 334.565 295.431H362.259V273.909H339.522C340.276 268.636 340.707 263.255 340.707 257.766C340.707 256.368 340.599 255.076 340.491 253.785L367 240.548L357.409 221.285H357.194ZM305.901 209.34H202.668C214.522 189.754 233.164 177.056 254.284 177.056C275.405 177.056 294.047 189.754 305.901 209.34ZM265.06 337.293V263.147H243.509V337.293C229.716 334.388 217.323 325.994 207.948 313.941C198.573 301.888 207.302 313.188 207.302 313.188C196.31 298.768 189.522 279.289 189.522 257.766C189.522 248.296 190.922 239.257 193.293 230.863H315.06C317.431 239.257 318.832 248.296 318.832 257.766C318.832 279.182 312.043 298.66 301.052 313.188L300.405 313.833C291.03 325.994 278.638 334.388 264.845 337.293H265.06Z"
        fill="currentColor" />
</svg>